REM DIRINDEX 1\2,1\3
REM DIRNAME cjc145,folder01,folder02
TITLE ""
FILE "DISC2Track19.mp3" MP3
  TRACK 01 AUDIO
    TITLE "0:"
    INDEX 01 00:00:00
  TRACK 02 AUDIO
    TITLE "3:cjc145_1859"
    INDEX 01 00:00:09
  TRACK 03 AUDIO
    TITLE "0:"
    INDEX 01 00:03:37
  TRACK 04 AUDIO
    TITLE "2:cjc145_1860"
    INDEX 01 00:04:44
  TRACK 05 AUDIO
    TITLE "2:cjc145_1861"
    INDEX 01 00:06:22
  TRACK 06 AUDIO
    TITLE "2:cjc145_1862"
    INDEX 01 00:08:32
  TRACK 07 AUDIO
    TITLE "0:"
    INDEX 01 00:10:23
  TRACK 08 AUDIO
    TITLE "2:cjc145_1863"
    INDEX 01 00:10:70
  TRACK 09 AUDIO
    TITLE "2:cjc145_1864"
    INDEX 01 00:13:59
  TRACK 10 AUDIO
    TITLE "2:cjc145_1865"
    INDEX 01 00:16:44
  TRACK 11 AUDIO
    TITLE "0:"
    INDEX 01 00:19:11
  TRACK 12 AUDIO
    TITLE "2:cjc145_1866"
    INDEX 01 00:19:56
  TRACK 13 AUDIO
    TITLE "2:cjc145_1867"
    INDEX 01 00:21:49
  TRACK 14 AUDIO
    TITLE "2:cjc145_1868"
    INDEX 01 00:23:46
  TRACK 15 AUDIO
    TITLE "0:"
    INDEX 01 00:25:31
  TRACK 16 AUDIO
    TITLE "2:cjc145_1869"
    INDEX 01 00:26:03
  TRACK 17 AUDIO
    TITLE "2:cjc145_1870"
    INDEX 01 00:29:36
  TRACK 18 AUDIO
    TITLE "2:cjc145_1871"
    INDEX 01 00:33:32
  TRACK 19 AUDIO
    TITLE "0:"
    INDEX 01 00:37:12
  TRACK 20 AUDIO
    TITLE "2:cjc145_1872"
    INDEX 01 00:37:63
  TRACK 21 AUDIO
    TITLE "2:cjc145_1873"
    INDEX 01 00:40:24
  TRACK 22 AUDIO
    TITLE "2:cjc145_1874"
    INDEX 01 00:42:65
  TRACK 23 AUDIO
    TITLE "0:"
    INDEX 01 00:45:16
  TRACK 24 AUDIO
    TITLE "2:cjc145_1875"
    INDEX 01 00:45:63
  TRACK 25 AUDIO
    TITLE "2:cjc145_1876"
    INDEX 01 00:48:59
  TRACK 26 AUDIO
    TITLE "2:cjc145_1877"
    INDEX 01 00:51:67
  TRACK 27 AUDIO
    TITLE "0:"
    INDEX 01 00:54:54
  TRACK 28 AUDIO
    TITLE "2:cjc145_1878"
    INDEX 01 00:55:28
  TRACK 29 AUDIO
    TITLE "2:cjc145_1879"
    INDEX 01 00:58:24
  TRACK 30 AUDIO
    TITLE "2:cjc145_1880"
    INDEX 01 01:01:17
  TRACK 31 AUDIO
    TITLE "0:"
    INDEX 01 01:03:53
  TRACK 32 AUDIO
    TITLE "2:cjc145_1881"
    INDEX 01 01:04:25
  TRACK 33 AUDIO
    TITLE "2:cjc145_1882"
    INDEX 01 01:07:55
  TRACK 34 AUDIO
    TITLE "2:cjc145_1883"
    INDEX 01 01:11:29
  TRACK 35 AUDIO
    TITLE "0:"
    INDEX 01 01:14:65
  TRACK 36 AUDIO
    TITLE "2:cjc145_1884"
    INDEX 01 01:15:35
  TRACK 37 AUDIO
    TITLE "2:cjc145_1885"
    INDEX 01 01:19:21
  TRACK 38 AUDIO
    TITLE "2:cjc145_1886"
    INDEX 01 01:23:16
  TRACK 39 AUDIO
    TITLE "0:"
    INDEX 01 01:26:72
  TRACK 40 AUDIO
    TITLE "2:cjc145_1887"
    INDEX 01 01:27:40
  TRACK 41 AUDIO
    TITLE "2:cjc145_1888"
    INDEX 01 01:29:39
  TRACK 42 AUDIO
    TITLE "2:cjc145_1889"
    INDEX 01 01:31:16
  TRACK 43 AUDIO
    TITLE "0:"
    INDEX 01 01:32:53
  TRACK 44 AUDIO
    TITLE "2:cjc145_1890"
    INDEX 01 01:33:29
  TRACK 45 AUDIO
    TITLE "2:cjc145_1891"
    INDEX 01 01:35:71
  TRACK 46 AUDIO
    TITLE "2:cjc145_1892"
    INDEX 01 01:38:42
  TRACK 47 AUDIO
    TITLE "0:"
    INDEX 01 01:40:74
  TRACK 48 AUDIO
    TITLE "2:cjc145_1893"
    INDEX 01 01:41:48
  TRACK 49 AUDIO
    TITLE "2:cjc145_1894"
    INDEX 01 01:44:15
  TRACK 50 AUDIO
    TITLE "2:cjc145_1895"
    INDEX 01 01:46:16
  TRACK 51 AUDIO
    TITLE "0:"
    INDEX 01 01:47:74
  TRACK 52 AUDIO
    TITLE "2:cjc145_1896"
    INDEX 01 01:48:46
  TRACK 53 AUDIO
    TITLE "2:cjc145_1897"
    INDEX 01 01:51:32
  TRACK 54 AUDIO
    TITLE "2:cjc145_1898"
    INDEX 01 01:54:42
  TRACK 55 AUDIO
    TITLE "0:"
    INDEX 01 01:57:37
  TRACK 56 AUDIO
    TITLE "2:cjc145_1899"
    INDEX 01 01:58:09
  TRACK 57 AUDIO
    TITLE "2:cjc145_1900"
    INDEX 01 02:01:68
  TRACK 58 AUDIO
    TITLE "2:cjc145_1901"
    INDEX 01 02:05:15
  TRACK 59 AUDIO
    TITLE "0:"
    INDEX 01 02:08:21
  TRACK 60 AUDIO
    TITLE "2:cjc145_1902"
    INDEX 01 02:08:68
  TRACK 61 AUDIO
    TITLE "2:cjc145_1903"
    INDEX 01 02:11:49
  TRACK 62 AUDIO
    TITLE "2:cjc145_1904"
    INDEX 01 02:14:30
  TRACK 63 AUDIO
    TITLE "0:"
    INDEX 01 02:16:62
  TRACK 64 AUDIO
    TITLE "2:cjc145_1905"
    INDEX 01 02:17:38
  TRACK 65 AUDIO
    TITLE "2:cjc145_1906"
    INDEX 01 02:21:51
  TRACK 66 AUDIO
    TITLE "2:cjc145_1907"
    INDEX 01 02:25:06
  TRACK 67 AUDIO
    TITLE "0:"
    INDEX 01 02:28:16
